<svg width="105" height="116" viewBox="0 0 105 116" fill="none" xmlns="http://www.w3.org/2000/svg">
<path d="M54.0619 99.1747C73.7801 99.1747 89.7648 83.19 89.7648 63.4718C89.7648 43.7536 73.7801 27.7688 54.0619 27.7688C34.3436 27.7688 18.3589 43.7536 18.3589 63.4718C18.3589 83.19 34.3436 99.1747 54.0619 99.1747Z" fill="#2F2E41"/>
<path d="M49.1031 91.241H38.1938V111.076H49.1031V91.241Z" fill="#2F2E41"/>
<path d="M70.9219 91.241H60.0127V111.076H70.9219V91.241Z" fill="#2F2E41"/>
<path d="M47.1196 115.043C52.0491 115.043 56.0453 113.489 56.0453 111.572C56.0453 109.655 52.0491 108.101 47.1196 108.101C42.19 108.101 38.1938 109.655 38.1938 111.572C38.1938 113.489 42.19 115.043 47.1196 115.043Z" fill="#2F2E41"/>
<path d="M68.9384 114.051C73.868 114.051 77.8642 112.497 77.8642 110.58C77.8642 108.663 73.868 107.109 68.9384 107.109C64.0089 107.109 60.0127 108.663 60.0127 110.58C60.0127 112.497 64.0089 114.051 68.9384 114.051Z" fill="#2F2E41"/>
<path d="M55.5492 66.4473C62.3958 66.4473 67.9461 60.897 67.9461 54.0504C67.9461 47.2038 62.3958 41.6536 55.5492 41.6536C48.7026 41.6536 43.1523 47.2038 43.1523 54.0504C43.1523 60.897 48.7026 66.4473 55.5492 66.4473Z" fill="white"/>
<path d="M55.5493 57.5213C58.0141 57.5213 60.0122 55.9673 60.0122 54.0502C60.0122 52.1332 58.0141 50.5791 55.5493 50.5791C53.0845 50.5791 51.0864 52.1332 51.0864 54.0502C51.0864 55.9673 53.0845 57.5213 55.5493 57.5213Z" fill="#3F3D56"/>
<path d="M19.878 29.5672C17 16.7761 26.1997 3.85117 40.4261 0.698639C54.6525 -2.4539 68.5183 5.35971 71.3963 18.1508C74.2743 30.942 64.8459 35.6595 50.6195 38.8121C36.3932 41.9646 22.756 42.3583 19.878 29.5672Z" fill="#4ADAC0"/>
<path d="M88.2924 56.0332C97.4165 52.128 103.819 46.6403 102.593 43.7759C101.367 40.9115 92.9769 41.7553 83.8528 45.6605C74.7286 49.5657 68.3259 55.0535 69.5518 57.9178C70.7778 60.7822 79.1682 59.9384 88.2924 56.0332Z" fill="#2F2E41"/>
<path d="M20.9603 80.1453C30.0845 76.2401 36.4872 70.7523 35.2613 67.888C34.0353 65.0236 25.6449 65.8674 16.5208 69.7725C7.3966 73.6777 0.993834 79.1655 2.21979 82.0299C3.44575 84.8942 11.8362 84.0505 20.9603 80.1453Z" fill="#2F2E41"/>
<path d="M75.8804 73.8825C75.8804 77.3842 66.589 84.2987 56.2788 84.2987C45.9686 84.2987 36.2104 77.8371 36.2104 74.3354C36.2104 70.8337 45.9686 71.6181 56.2788 71.6181C66.589 71.6181 75.8804 70.3809 75.8804 73.8825Z" fill="white"/>
</svg>
